<svg width="81" height="80" viewBox="0 0 81 80" fill="none" xmlns="http://www.w3.org/2000/svg">
<path d="M80.0319 77.103C79.7526 76.7756 79.4445 76.477 79.146 76.1593C73.7148 70.5356 68.2837 64.9311 62.8622 59.2978C59.0393 55.3304 55.2259 51.3341 51.4222 47.3474C50.9793 46.8852 50.5363 46.6348 49.8526 46.6541C47.7822 46.7022 45.7119 46.6733 43.6511 46.6733C43.6511 46.6637 43.6511 46.6637 43.6511 46.6541C41.4652 46.6541 39.2889 46.6541 37.103 46.6541C36.7659 46.6541 36.3904 46.6059 36.2171 47.02C36.0437 47.4341 36.3519 47.6556 36.5926 47.8963C36.7756 48.0793 36.9585 48.2622 37.1319 48.4452C46.463 58.3156 55.9867 68.003 65.443 77.7578C65.7126 78.037 65.9822 78.2489 66.3963 78.2489C70.7585 78.2393 75.1304 78.2489 79.4926 78.2489C79.82 78.2489 80.1474 78.22 80.3208 77.9118C80.5326 77.5652 80.2341 77.3341 80.0319 77.103Z" fill="#FFF"/>
<path d="M7.28965 61.2237C7.22224 61.1178 7.15484 61.0118 7.08743 60.9059C7.08743 61.0504 7.15484 61.1563 7.28965 61.2237Z" fill="#FFF"/>
<path d="M19.3459 72.9719C19.24 72.9045 19.1341 72.837 19.0185 72.7696C19.0763 72.9237 19.1919 72.9815 19.3459 72.9719Z" fill="#FFF"/>
<path d="M4.84373 56.9481C4.78595 56.8326 4.72817 56.7074 4.67039 56.5919C4.66076 56.7459 4.70891 56.8711 4.84373 56.9481Z" fill="#FFF"/>
<path d="M40.0015 67.7237C38.8074 67.6756 37.623 67.637 36.4193 67.4445C21.5704 65.0756 11.2282 51.5074 12.9904 36.5815C13.5585 31.7185 15.1859 27.2119 18.2482 23.3793C24.8637 15.0785 33.5689 11.0919 44.1326 12.3437C55.6111 13.7015 63.7 19.8452 67.6867 30.9289C67.8408 31.3526 68.043 31.497 68.4956 31.497C72.203 31.4874 75.9104 31.4874 79.6178 31.5163C80.263 31.5163 80.3304 31.2659 80.1956 30.7363C79.7911 29.2052 79.3771 27.6837 78.7993 26.2104C75.9682 18.94 71.2978 13.0852 65.0289 8.50148C59.3763 4.37037 53.04 1.90519 46.0874 1.02889C46.0393 1.02889 45.9911 1.01926 45.943 1.01926C45.7119 0.980741 45.4904 0.942223 45.2593 0.913334C45.1437 0.903705 45.0185 0.894074 44.903 0.874815C44.9126 0.884445 44.9319 0.903705 44.9415 0.913334C44.9319 0.903705 44.9126 0.894074 44.903 0.874815C44.5178 0.845926 44.1326 0.817038 43.7571 0.788149C42.4763 0.566667 41.1956 0.576296 39.9148 0.701481C39.7415 0.701481 39.5778 0.711112 39.4045 0.711112C38.9711 0.634075 38.5474 0.614816 38.1237 0.788149C37.8541 0.807408 37.5845 0.826666 37.3148 0.845926C37.1993 0.768889 37.0837 0.77852 36.9778 0.865186C36.6408 0.903705 36.3037 0.951852 35.9667 0.99037C35.5237 0.932592 35.1 0.961482 34.6956 1.15408C34.1948 1.23111 33.6845 1.30815 33.1837 1.38519C32.9815 1.32741 32.7889 1.3563 32.6348 1.50074C32.683 1.52 32.7408 1.52963 32.7889 1.52963C32.7408 1.52963 32.6926 1.52 32.6348 1.50074C32.4711 1.52963 32.3171 1.55852 32.1534 1.57778C31.9608 1.52963 31.8067 1.58741 31.6719 1.72222L31.643 1.73185C30.6126 1.83778 29.6304 2.09778 28.6963 2.55037C28.5904 2.56963 28.4845 2.59852 28.3785 2.61778C27.9934 2.7237 27.5985 2.79111 27.223 2.93556C12.5859 8.87704 3.55336 19.3733 1.15558 35.1948C0.722246 38.0356 0.654839 40.9052 1.11706 43.7652C1.14595 44.0444 1.17484 44.3237 1.20373 44.603C1.24225 45.6141 1.40595 46.5963 1.67558 47.5689C1.70447 47.6844 1.73336 47.8096 1.77187 47.9252C1.82002 48.8496 2.07039 49.7163 2.40743 50.5733C2.43632 50.66 2.46521 50.7563 2.4941 50.843C2.59039 51.5363 2.78299 52.1911 3.12965 52.8074C3.12965 52.8459 3.14891 52.8844 3.16817 52.923C3.13928 53.2215 3.25484 53.4719 3.42817 53.7126C3.46669 53.7896 3.50521 53.8763 3.54373 53.9533C3.5341 54.2422 3.64965 54.4733 3.85188 54.6756C3.84225 54.82 3.87113 54.9452 3.99632 55.0319L4.00595 55.0415C4.00595 55.1859 4.04447 55.3111 4.17928 55.3978C4.18891 55.4363 4.19854 55.4748 4.22743 55.5133C4.22743 55.8022 4.35262 56.043 4.55484 56.2356C4.56447 56.2837 4.5741 56.3222 4.60299 56.3607C4.6415 56.4378 4.68002 56.5052 4.70891 56.5822C4.76669 56.6978 4.82447 56.823 4.88225 56.9385C4.89187 56.977 4.91113 57.0252 4.93039 57.0541C4.96891 57.1215 5.00743 57.1985 5.04595 57.2659L5.08447 57.2467L5.04595 57.2756C5.22891 57.863 5.48891 58.3926 5.90299 58.8548C5.91262 58.8933 5.93187 58.9319 5.95113 58.9607C5.98965 59.0282 6.02817 59.1052 6.06669 59.1726L6.07632 59.1822C6.24002 59.7215 6.53854 60.1837 6.92373 60.5978C6.93336 60.6363 6.95262 60.6652 6.9815 60.6844C7.02965 60.7519 7.0778 60.8193 7.11632 60.8867C7.18373 60.9926 7.25113 61.0985 7.31854 61.2044C7.35706 61.4259 7.46299 61.6089 7.65558 61.7244C7.77113 62.0904 8.00225 62.3793 8.29113 62.62L8.30076 62.6296C8.32002 62.7741 8.38743 62.8607 8.52225 62.9089L8.53188 62.9185C8.56076 63.0919 8.65706 63.217 8.81113 63.2941L8.82076 63.3037C8.83039 63.4482 8.8978 63.5444 9.03262 63.5926L9.04224 63.6022C9.07113 63.7852 9.17706 63.9007 9.34076 63.9778L9.35039 63.9874C9.39854 64.0452 9.43706 64.103 9.48521 64.1704L9.50447 64.1896C9.52373 64.3244 9.59113 64.4207 9.72595 64.4689V64.4785C9.75484 64.6615 9.87039 64.7867 10.0437 64.8444L10.0534 64.8541C10.1015 64.9118 10.1497 64.9696 10.1978 65.037L10.2074 65.0467C10.2556 65.1044 10.2941 65.1622 10.3422 65.22L10.3711 65.2489C10.4097 65.297 10.4482 65.3452 10.4867 65.3933L10.5348 65.4415C10.6022 65.6437 10.7274 65.7882 10.9297 65.8652C11.1126 66.2504 11.4111 66.5296 11.7578 66.7607V66.7704C11.8156 66.8281 11.8637 66.8763 11.9215 66.9341L11.9311 66.9437C11.9889 67.0015 12.0371 67.0496 12.0948 67.1074L12.1045 67.117C12.1622 67.1748 12.2104 67.223 12.2682 67.2807L12.2778 67.2904C12.3259 67.3482 12.3837 67.3963 12.4319 67.4541L12.4415 67.4637C12.4993 67.5119 12.5571 67.5696 12.6148 67.6178L12.6245 67.6274C12.6822 67.6852 12.7304 67.7333 12.7882 67.7911L12.7978 67.8007C12.8556 67.8585 12.9037 67.9067 12.9615 67.9644L12.9711 67.9741C13.0289 68.0319 13.0771 68.08 13.1348 68.1378L13.1445 68.1474C13.3756 68.4941 13.6548 68.7926 14.0497 68.9659C14.1267 69.1682 14.2808 69.2933 14.4734 69.3704L14.5119 69.4089C14.5697 69.4474 14.6178 69.4956 14.6756 69.5341L14.6948 69.5533C14.7526 69.6015 14.8104 69.6496 14.8778 69.6881L14.8874 69.6978C15.0993 70.0156 15.3593 70.2659 15.7348 70.3911L15.7445 70.4007C15.8697 70.6319 16.043 70.7956 16.3126 70.8533C16.3415 70.8822 16.3704 70.9015 16.4089 70.9111C16.4956 71.0844 16.6208 71.2 16.8134 71.2096C16.8711 71.2578 16.9385 71.3059 16.9963 71.3541C17.0156 71.3926 17.0541 71.4215 17.0926 71.4407C17.4393 71.8259 17.8341 72.1244 18.3252 72.2785L18.3348 72.2881C18.4889 72.5674 18.7682 72.6733 19.0474 72.76C19.1534 72.8274 19.2593 72.8948 19.3748 72.9622C19.4422 73.0007 19.5096 73.0489 19.5867 73.0874C19.6156 73.1163 19.6445 73.1356 19.683 73.1548C19.8852 73.3859 20.1163 73.5689 20.4341 73.617H20.4437C20.8289 73.9733 21.2622 74.2333 21.7726 74.3489L21.7822 74.3585C21.9171 74.5607 22.1 74.657 22.3408 74.6474C22.3793 74.6763 22.4178 74.6859 22.4563 74.6956C22.5334 74.8304 22.6489 74.8785 22.803 74.8785L22.8126 74.8882C22.8897 74.9267 22.9571 74.9556 23.0341 74.9941C23.0726 75.0133 23.1015 75.0326 23.1497 75.0326C23.2267 75.1674 23.3519 75.2156 23.5059 75.2156L23.5156 75.2252C24.3919 75.7452 25.3067 76.1689 26.3082 76.4C26.3371 76.4289 26.3756 76.4385 26.4141 76.4482C26.52 76.5733 26.6548 76.6119 26.8089 76.5926C26.8378 76.6215 26.8763 76.6407 26.9245 76.6504C27.0111 76.6696 27.0882 76.6889 27.1748 76.7178C27.2134 76.737 27.2615 76.7467 27.3 76.7563C28.1282 77.1896 28.9948 77.4785 29.9193 77.6133C29.9482 77.6422 29.9867 77.6519 30.0252 77.6519C32.1245 78.3644 34.3008 78.6726 36.4771 78.9422C36.7082 78.9422 36.9393 78.9422 37.1704 78.9422C37.2282 78.9422 37.2859 78.9519 37.3534 78.9519C37.6615 78.9807 37.9697 79 38.2778 79.0289L38.2296 79.0963C38.3163 79.0963 38.403 79.1059 38.4897 79.1059C39.1252 79.2311 39.7704 79.2022 40.4059 79.1348C40.6274 79.1348 40.8489 79.1252 41.0704 79.1252C43.8245 79.1252 46.5304 78.7978 49.2074 78.2104C49.7371 78.1044 50.1896 77.9985 50.5363 77.9119C50.7289 77.8733 50.883 77.8348 50.9889 77.7963C51.2585 77.7193 51.403 77.6807 51.403 77.6807L49.2074 74.3489L44.9511 67.4445C44.1037 67.7333 40.0015 67.7237 40.0015 67.7237Z" fill="#FFF"/>
</svg>
